<svg xmlns="http://www.w3.org/2000/svg" xmlns:xlink="http://www.w3.org/1999/xlink" fill="none" version="1.1" width="48" height="48" viewBox="0 0 48 48"><g><g><path d="M24,48C37.2548,48,48,37.2548,48,24C48,10.7452,37.2548,0,24,0C10.7452,0,0,10.7452,0,24C0,37.2548,10.7452,48,24,48ZM21.3131,34.4553L19.6161,32.7582L12.545,25.6872C12.2326,25.3748,12.2326,24.8682,12.545,24.5558L14.2421,22.8587C14.5545,22.5463,15.061,22.5463,15.3734,22.8587L21.8788,29.3641L34.041,17.2019C34.3535,16.8895,34.86,16.8895,35.1724,17.2019L36.8695,18.899C37.1819,19.2114,37.1819,19.7179,36.8695,20.0303L24.1416,32.7582L22.4445,34.4553C22.1718,34.728,21.7433,34.7673,21.4255,34.5488C21.3853,34.5211,21.3477,34.4898,21.3131,34.4553Z" fill-rule="evenodd" fill="#20CC94" fill-opacity="1"/></g></g></svg>